<svg version="1.1" id="Layer_1" xmlns="http://www.w3.org/2000/svg" xmlns:xlink="http://www.w3.org/1999/xlink" x="0px" y="0px"
	 width="100%" viewBox="0 0 1080 1080" enable-background="new 0 0 1080 1080" xml:space="preserve">
<path fill="#000000" opacity="1.000000" stroke="none" 
	d="
M1081.000000,369.000000 
	C1081.000000,539.361389 1081.000000,709.722717 1080.531372,880.542053 
	C1057.062744,880.999939 1034.062622,880.999939 1011.062622,880.999634 
	C1005.395996,880.999573 999.724792,881.119751 994.065918,880.910095 
	C992.701965,880.859558 990.162842,879.291199 990.216675,879.136780 
	C991.186890,876.355408 992.074402,873.388916 993.795471,871.066711 
	C995.772522,868.398987 1000.369080,866.499451 1000.616150,863.954590 
	C1001.225769,857.673706 1007.740173,853.481812 1006.055664,846.708008 
	C1005.940186,846.243530 1006.474243,845.585571 1006.774109,845.056030 
	C1007.494507,843.784058 1008.882446,842.544495 1008.901794,841.275208 
	C1009.071289,830.111145 1009.002686,818.943359 1008.995239,807.776733 
	C1008.994568,806.781616 1009.176147,805.009705 1008.854797,804.906982 
	C1003.218323,803.104858 1007.969788,796.645203 1003.400696,793.348938 
	C1001.121948,791.704895 1001.019836,785.542664 998.118164,781.962769 
	C993.669312,776.474060 989.718994,770.580933 985.566162,764.852844 
	C981.421387,759.135925 973.895203,756.041016 972.577637,748.108093 
	C972.512329,747.714661 971.934875,747.352722 971.527344,747.077637 
	C965.908813,743.286499 962.136658,738.094421 958.466370,732.381348 
	C954.286682,725.875183 946.902771,721.710022 943.675110,714.220703 
	C943.630249,714.116699 943.359863,714.130737 943.257141,714.027588 
	C941.168640,711.930176 938.874878,709.991699 937.061096,707.677368 
	C934.671509,704.628174 932.067200,701.924011 930.088501,698.283691 
	C926.228821,691.182556 917.044678,687.967285 914.548157,679.213074 
	C914.083130,677.582214 912.225891,676.165588 910.715576,675.050293 
	C906.299133,671.788696 901.273438,669.139404 900.787659,662.675171 
	C900.740601,662.049377 899.312195,661.602295 898.668579,660.934021 
	C894.760864,656.877380 890.776428,652.885193 887.050293,648.665955 
	C883.740845,644.918640 880.998230,640.644592 877.508911,637.090393 
	C874.724121,634.253723 872.630249,629.823486 867.386780,630.700745 
	C866.358582,626.364746 863.187805,625.504761 859.253601,624.298035 
	C854.763489,622.920776 851.067200,619.028625 845.728577,619.978882 
	C845.092590,620.092041 843.899536,620.108643 843.821777,619.879395 
	C842.087341,614.763550 837.847412,617.243164 834.772339,617.110413 
	C827.119995,616.780151 819.443665,616.987183 811.777161,617.017578 
	C810.641418,617.022095 808.585388,617.041199 808.510864,617.387878 
	C807.563416,621.796204 804.131287,619.460083 801.825684,619.959656 
	C800.394165,620.269836 798.549988,619.687012 797.461487,620.389221 
	C793.325684,623.057800 790.472839,624.118469 788.066223,625.126282 
	C785.491821,626.204590 783.136902,628.041199 781.016052,629.919373 
	C776.604919,633.825623 772.360596,637.925781 768.148315,642.048950 
	C765.667297,644.477539 762.997314,646.851379 761.112793,649.711304 
	C759.273132,652.503174 758.595398,656.041077 756.891235,658.948730 
	C755.710693,660.962830 754.034058,663.604919 753.533508,665.065613 
	C751.878723,669.894531 752.139771,675.179565 750.563843,680.504822 
	C748.341736,688.013672 749.999695,696.671631 750.009521,704.838257 
	C750.010132,705.327087 749.986267,706.189453 750.175110,706.250000 
	C755.073181,707.819336 752.270020,711.895081 752.982544,714.799683 
	C753.214233,715.744202 753.195801,717.578735 753.367737,717.588013 
	C757.755737,717.822815 756.495789,722.219055 757.639404,724.299561 
	C760.457764,729.426514 762.175842,733.177795 766.334106,737.149780 
	C767.906799,738.652039 768.821533,740.853027 769.993835,742.761536 
	C771.049011,744.479126 771.783386,746.475952 773.122437,747.920227 
	C776.146423,751.181763 779.594788,754.054138 782.559875,757.363098 
	C783.373535,758.271240 782.573425,760.642334 783.393433,761.525024 
	C788.400208,766.914917 794.722961,770.644531 797.793945,778.376526 
	C799.505981,782.687134 806.312256,784.996033 809.120239,789.979553 
	C810.064636,791.655640 810.823914,793.506042 812.064575,794.931458 
	C815.261292,798.604309 818.740479,802.030090 821.985779,805.662659 
	C823.781250,807.672302 825.250244,809.971191 827.013916,812.012268 
	C829.958130,815.419739 833.194458,818.588928 835.964722,822.127014 
	C837.500000,824.087769 837.963318,826.913635 839.563538,828.792847 
	C844.310669,834.367676 850.325134,839.089539 854.078003,845.225159 
	C858.356750,852.220276 867.023315,855.515930 869.068176,864.098633 
	C869.170959,864.530151 870.074646,864.719421 870.488403,865.137390 
	C872.027039,866.691833 873.513855,868.297424 875.025635,869.878540 
	C877.350647,872.310242 879.680298,874.737610 882.102539,877.342896 
	C882.361938,877.738647 882.573242,877.896118 882.908569,878.313904 
	C883.028503,879.075745 883.070740,879.515015 882.814453,880.200684 
	C882.676819,883.242432 882.837524,886.037781 882.535400,888.910034 
	C759.578674,888.986816 637.084961,888.986816 513.582886,888.986816 
	C517.360657,886.486877 520.405029,884.843323 523.010376,882.672791 
	C528.796936,877.851807 534.261169,872.748962 538.121582,866.057373 
	C539.820496,863.112671 542.769470,860.911926 544.992126,858.241211 
	C548.128845,854.472290 553.563232,852.286316 553.446960,846.209900 
	C553.445740,846.148071 554.127808,846.179749 554.314331,845.992188 
	C558.540100,841.741211 563.336731,837.893372 566.790955,833.082886 
	C570.798645,827.501587 573.812561,821.247070 580.284546,817.894653 
	C580.694885,817.682068 581.030884,816.781067 580.956604,816.264343 
	C580.370972,812.190063 584.272827,811.313110 585.926453,808.870850 
	C588.824158,804.591248 595.210938,802.831543 595.061890,796.355164 
	C595.051880,795.920410 595.683105,795.428650 596.084900,795.033325 
	C599.384338,791.787048 602.786072,788.639282 605.978149,785.291321 
	C607.833984,783.344666 609.266296,781.000427 611.057556,778.984741 
	C613.967041,775.710510 616.563660,771.855469 620.137695,769.564392 
	C623.358215,767.500122 622.105774,764.102966 624.021545,762.053650 
	C626.674927,759.214722 629.594604,756.624695 632.797241,753.546631 
	C632.932983,756.327087 633.036377,758.444519 633.145203,760.673279 
	C681.153931,760.673279 729.034119,760.673279 776.664185,760.673279 
	C776.664185,757.923462 776.664185,755.518188 776.664185,752.758179 
	C728.940186,752.758179 681.553467,752.758179 634.281250,752.758179 
	C636.229797,749.357422 637.651733,745.880005 639.931641,743.108398 
	C644.397339,737.679626 652.058472,734.858521 653.190979,726.675293 
	C653.232544,726.375488 654.378845,726.350098 654.773926,725.958435 
	C657.879211,722.881042 661.093750,719.888062 663.927429,716.572327 
	C665.535767,714.690369 666.240295,712.048157 667.801453,710.110535 
	C669.977417,707.409851 672.651184,705.117065 674.970276,702.523071 
	C677.560181,699.625916 680.068848,696.889648 682.010681,693.214600 
	C685.442993,686.718811 694.694519,684.584900 696.555237,676.019287 
	C696.825439,677.642883 697.095642,679.266479 697.331299,680.682495 
	C713.408630,680.682495 729.157471,680.682495 744.666260,680.682495 
	C744.666260,677.940369 744.666260,675.538269 744.666260,672.525085 
	C729.574341,672.525085 714.813782,672.525085 699.323303,672.525085 
	C701.052612,671.090454 702.057556,670.315796 702.995850,669.467407 
	C706.002319,666.749146 708.140808,663.418274 710.431519,660.078125 
	C713.916016,654.997192 718.655701,650.792297 722.676697,646.057678 
	C724.666199,643.715027 726.106873,640.911255 728.048340,638.521179 
	C729.480896,636.757690 731.609314,635.531555 732.917480,633.701233 
	C735.169983,630.549561 739.764709,628.972900 739.516541,624.116028 
	C745.335999,622.106018 746.009521,614.132446 752.509766,612.862000 
	C752.747253,612.815674 752.972595,611.998230 752.970093,611.541382 
	C752.940430,606.152222 757.953430,604.363586 760.511353,600.824829 
	C763.822632,596.243835 766.969971,591.532532 769.953735,586.731750 
	C771.441101,584.338745 772.506042,581.662415 773.586792,579.041992 
	C775.462830,574.493713 778.418457,569.976624 778.754761,565.290955 
	C779.528442,554.513245 779.007812,543.641968 778.988220,532.808716 
	C778.986084,531.655823 779.141296,530.351746 778.678040,529.377197 
	C776.908691,525.655579 774.860840,522.067688 773.023926,518.376587 
	C771.460083,515.234192 769.535889,512.147644 768.686279,508.803802 
	C767.558289,504.363861 763.948364,502.428955 761.267090,499.447510 
	C758.043518,495.863068 755.933960,491.290588 752.798035,487.609314 
	C750.068604,484.405243 746.532593,481.898438 743.451294,478.979736 
	C741.858948,477.471375 740.269409,475.878479 739.059204,474.069214 
	C737.587036,471.868347 736.843689,469.135986 735.207214,467.097382 
	C730.892639,461.722931 726.323669,456.547760 721.741943,451.394684 
	C718.879150,448.174957 715.826416,445.122711 712.815918,442.037292 
	C712.334412,441.543854 711.149353,441.329620 711.095398,440.887878 
	C710.366089,434.916321 706.251648,431.560516 701.834045,428.304169 
	C700.042419,426.983551 697.433899,425.296936 697.261230,423.570435 
	C696.932190,420.280304 695.147583,418.803284 693.003479,416.889038 
	C690.006714,414.213593 686.753113,411.358521 684.992065,407.880280 
	C682.601257,403.158234 678.974976,399.982208 675.468872,396.335052 
	C673.219788,393.995453 668.573425,392.305817 669.739258,387.424866 
	C669.803711,387.155029 669.129700,386.708405 668.798828,386.344574 
	C665.476746,382.690918 661.264648,380.085541 658.300110,375.761932 
	C657.073608,373.973206 656.811340,371.562653 655.067383,369.982849 
	C650.628479,365.961731 645.525818,362.246368 642.401672,357.321930 
	C639.322205,352.467926 636.330017,348.025146 631.540894,344.781982 
	C630.090088,343.799530 628.414551,342.159241 628.146301,340.596405 
	C627.131165,334.680847 621.632996,332.372467 618.675720,328.061188 
	C616.793335,325.316956 614.175049,323.088684 612.030762,320.509308 
	C610.297424,318.424316 608.946960,316.007355 607.125427,314.012726 
	C604.565491,311.209534 600.744141,309.121246 599.234009,305.897278 
	C596.881042,300.874084 594.334045,296.814972 589.176392,294.183472 
	C586.925110,293.034790 584.573547,290.003143 584.280518,287.582916 
	C583.840088,283.945862 580.960205,283.087982 579.214050,281.027557 
	C576.311279,277.602386 572.572327,274.776489 570.174500,271.060120 
	C567.096680,266.289825 563.848938,261.711487 560.113220,258.937408 
	C558.561890,257.785461 556.298889,256.207275 556.214111,254.717270 
	C555.925598,249.651459 551.593384,248.032715 548.985962,244.981781 
	C546.730774,242.342972 544.229736,239.910629 542.030029,237.229019 
	C539.573730,234.234619 537.521301,230.895432 534.949097,228.013351 
	C532.321045,225.068756 529.253723,222.519119 526.420227,219.754028 
	C524.319092,217.703598 522.490295,215.303665 520.151001,213.591049 
	C518.449036,212.345078 514.937378,212.513290 514.279297,211.098816 
	C512.356995,206.966766 509.661621,205.396423 505.342316,205.972885 
	C504.730835,206.054489 503.552124,205.886581 503.514740,205.677200 
	C502.797729,201.662750 499.658722,203.386078 497.409302,202.965652 
	C496.580414,202.810715 495.809082,202.302567 495.035370,201.908630 
	C493.827179,201.293457 492.646332,200.099945 491.441711,200.084152 
	C480.443665,199.940048 469.442963,199.991043 458.443085,200.008545 
	C457.465454,200.010101 455.717560,199.966843 455.626709,200.299347 
	C454.344879,204.991241 450.606903,202.413010 447.992126,202.969482 
	C446.292297,203.331238 444.529755,202.289047 443.546265,205.306992 
	C442.979034,207.047729 439.386414,208.773499 437.141113,208.792389 
	C432.604095,208.830582 430.405518,212.350891 428.433716,214.775879 
	C425.813995,217.997681 423.650726,220.589005 420.557800,220.222290 
	C416.717102,225.959900 413.348083,230.947617 410.029663,235.968811 
	C408.308594,238.573090 405.936951,241.039795 405.171692,243.917664 
	C403.893005,248.726196 403.685699,253.817307 402.977051,258.782257 
	C402.871246,259.523376 402.574860,260.269531 402.221100,260.936127 
	C401.534973,262.228973 399.947021,263.595917 400.126587,264.706970 
	C401.412201,272.662506 397.002869,281.081757 402.783905,288.831787 
	C404.764801,291.487366 404.967438,295.973145 404.840546,299.582611 
	C404.635559,305.411926 407.279541,309.552460 410.992432,313.434601 
	C412.704010,315.224213 415.163055,316.670349 414.106171,319.874237 
	C414.047760,320.051331 415.267029,320.550964 415.770050,321.028473 
	C418.854004,323.955963 423.067444,326.404846 424.661896,330.006104 
	C426.555664,334.283447 430.049896,336.849854 432.242676,340.392883 
	C434.373199,343.835388 440.849640,344.227783 439.258209,350.326416 
	C439.013611,351.263824 440.521667,353.312317 441.683472,353.857574 
	C449.552338,357.550598 452.381012,365.791443 457.958679,371.526276 
	C461.385254,375.049438 464.415100,378.593414 466.778961,383.357391 
	C469.908691,389.664886 478.230042,392.147888 480.793579,400.441925 
	C482.133820,404.778137 489.428070,406.796265 492.023926,411.965179 
	C492.884491,413.678772 493.687500,415.517426 494.941864,416.918396 
	C498.164398,420.517609 501.782837,423.768372 504.925110,427.431091 
	C506.531189,429.303253 506.920807,432.791138 508.787933,433.758911 
	C514.159668,436.543213 515.238220,443.861847 521.618408,445.315430 
	C521.835815,445.364960 522.005310,446.209229 521.975769,446.668823 
	C521.668396,451.448639 525.807068,453.188263 528.365967,455.964783 
	C530.799683,458.605499 534.308777,460.638214 535.772217,463.691956 
	C537.555115,467.412476 540.219238,470.109680 542.815063,473.005524 
	C545.133911,475.592377 548.924316,477.698456 549.706970,480.643463 
	C551.181519,486.192108 555.923401,488.690796 558.740662,492.863342 
	C559.815063,494.454529 562.814148,495.690674 562.731995,496.944214 
	C562.467529,500.980804 565.524963,501.487579 567.745911,503.042938 
	C568.289551,503.423676 568.581787,504.154785 569.012695,504.706787 
	C572.380798,509.021362 575.575867,513.487854 579.175842,517.599854 
	C582.901245,521.855225 588.712402,525.118408 590.571167,529.978271 
	C593.341431,537.221313 600.384766,539.995605 603.744934,546.080139 
	C604.437378,547.334106 603.909912,549.350586 603.671387,550.975525 
	C603.600281,551.459900 602.114319,551.789246 602.097778,552.221069 
	C601.893860,557.552307 597.602539,559.549438 594.299988,562.567322 
	C591.613953,565.021790 587.313477,566.553406 587.809692,571.680908 
	C587.938171,573.009277 586.281372,574.928894 584.951172,575.903198 
	C580.539185,579.134827 575.241394,581.495544 574.903931,588.091858 
	C574.887146,588.420349 573.863220,588.609619 573.473450,589.020447 
	C569.945740,592.738220 566.297852,596.358521 562.998596,600.271667 
	C559.851990,604.003784 557.475891,608.455933 554.022888,611.838074 
	C551.054932,614.745056 547.013428,616.523438 546.903320,621.515320 
	C546.891968,622.032837 545.639526,622.466248 545.059692,623.037048 
	C541.038818,626.995178 535.724487,630.331299 533.372803,635.118469 
	C530.407654,641.154541 525.465820,644.989380 521.346130,649.684937 
	C519.231567,652.095032 515.577820,653.109497 515.909912,657.322510 
	C515.958923,657.944519 514.925903,658.682983 514.340637,659.318848 
	C509.654541,664.409851 503.507599,668.196838 500.765991,675.020203 
	C498.141785,681.551331 488.426483,682.977905 488.614990,691.647827 
	C488.617462,691.760864 487.620392,691.748230 487.344818,692.037354 
	C484.190979,695.345459 480.966431,698.598633 478.007690,702.076416 
	C475.696136,704.793518 473.851593,707.905273 471.572632,710.653564 
	C469.815033,712.773071 467.488983,714.433044 465.808258,716.601562 
	C463.836365,719.145691 462.589355,722.280212 460.490753,724.691040 
	C456.977814,728.726624 452.914307,732.279785 449.341400,736.267883 
	C447.925964,737.847778 447.642578,740.573486 446.088013,741.874451 
	C439.061218,747.755005 432.840607,754.242432 427.955414,762.059937 
	C426.037750,765.128723 423.788269,768.455017 420.835388,770.285583 
	C417.669006,772.248474 417.998169,776.498352 416.356384,777.443115 
	C409.992004,781.105286 409.211945,788.241455 405.352844,793.344971 
	C402.953491,796.518066 403.658478,802.050293 403.011017,806.529541 
	C402.800323,807.987549 403.205414,810.408508 402.496613,810.773743 
	C398.875977,812.639221 400.110626,815.777588 400.038086,818.501770 
	C399.905060,823.498169 399.989105,828.500732 400.009369,833.500549 
	C400.013367,834.489868 399.745483,835.986206 400.267120,836.389343 
	C405.714752,840.599792 401.486267,847.484131 404.879150,852.387268 
	C406.779663,855.133728 407.031006,858.984192 408.780579,861.881226 
	C411.149200,865.803345 414.088165,869.419617 417.075317,872.916931 
	C419.347260,875.576782 422.152832,877.772949 424.578796,880.311340 
	C426.975372,882.818848 430.619507,883.967651 432.720276,886.140991 
	C436.769714,890.330261 440.847473,893.069458 446.690002,893.016907 
	C447.658234,893.008240 449.423035,893.068848 449.478149,893.355469 
	C450.257690,897.409851 453.417816,895.569641 455.637482,896.000488 
	C456.401825,896.148926 457.180664,896.304565 457.899139,896.591553 
	C459.812134,897.355408 461.676514,898.831665 463.594696,898.889832 
	C472.026825,899.145630 480.471161,899.000183 488.809082,899.000183 
	C488.993774,901.357971 489.130646,903.105408 489.256073,904.706787 
	C630.723083,904.706787 771.812988,904.706787 914.092407,904.706787 
	C912.897095,901.662720 911.948853,899.247925 911.000366,896.666260 
	C911.000000,896.499329 911.000671,896.165527 911.438049,896.088074 
	C914.029480,896.057373 917.475464,895.283447 918.115845,896.291626 
	C921.031372,900.881653 925.231995,898.700195 928.809509,898.904358 
	C934.945740,899.254395 941.116577,899.019592 947.272583,898.982910 
	C948.404602,898.976196 950.464355,898.920959 950.526550,898.591675 
	C951.397827,893.980530 954.952942,896.650085 957.215820,896.054504 
	C958.463562,895.726196 960.568848,896.494202 961.067383,895.839172 
	C963.887451,892.134399 967.871826,891.764221 971.935608,890.728455 
	C974.399902,890.100342 976.188110,887.058472 978.450500,885.323120 
	C980.254028,883.939697 982.315247,882.892090 985.088440,881.187500 
	C985.088440,884.654663 985.088440,886.606567 985.088440,889.000000 
	C1017.199646,889.000000 1049.099854,889.000000 1081.000000,889.000000 
	C1081.000000,952.992981 1081.000000,1016.985901 1081.000000,1080.984131 
	C721.046509,1080.989502 361.093048,1080.989502 1.069790,1080.989502 
	C1.069790,721.086060 1.069790,361.172058 1.069790,1.129045 
	C360.999969,1.129045 721.000000,1.129045 1081.000000,1.126195 
	C1081.000000,120.776932 1081.000000,240.430511 1080.531372,360.542053 
	C1040.748535,361.000000 1001.434387,361.000000 962.120239,361.000000 
	C963.592590,358.522034 966.820801,357.063995 966.716614,355.905701 
	C966.193481,350.089386 971.539368,348.513733 974.102783,345.220093 
	C976.566528,342.054565 981.008911,340.458588 981.077820,335.462341 
	C981.084656,334.967712 981.973694,334.470825 982.476379,333.999695 
	C986.574341,330.158569 992.573181,327.002747 994.258972,322.299683 
	C996.027100,317.367157 1001.806763,315.461182 1001.675049,309.304901 
	C1001.595154,305.571198 1006.956299,302.751495 1006.064087,297.894226 
	C1005.964844,297.353790 1006.732605,296.662598 1007.077820,296.030151 
	C1007.726135,294.842255 1008.901428,293.652435 1008.915283,292.452545 
	C1009.053650,280.458191 1009.005615,268.461670 1008.989319,256.465729 
	C1008.987976,255.485916 1009.043945,253.729797 1008.720154,253.642349 
	C1003.352539,252.192947 1007.241943,246.242844 1003.413269,243.115250 
	C1001.184692,241.294647 1001.045837,235.448303 997.971863,232.330566 
	C997.083008,231.429153 995.167664,230.710419 995.162048,229.897919 
	C995.114319,223.031677 987.526855,222.102844 985.271790,217.021439 
	C984.744507,215.833481 983.191589,214.012466 982.478027,214.168045 
	C976.901550,215.383774 975.950256,207.708237 970.290588,208.257065 
	C967.993469,208.479813 965.548462,204.381409 962.770935,203.153534 
	C959.303467,201.620621 955.467468,200.429413 951.711670,200.149506 
	C945.249390,199.667923 938.665100,199.453217 932.246277,200.161835 
	C926.419495,200.805069 920.331665,197.574371 914.504944,202.646774 
	C912.020630,204.809525 906.416870,202.265884 902.727600,205.850967 
	C900.752441,207.770416 896.967834,207.689499 894.563232,209.334763 
	C889.792542,212.598907 885.295166,216.298523 880.919250,220.088730 
	C878.685120,222.023788 875.662964,224.355942 875.301392,226.843597 
	C874.739441,230.709152 871.716309,231.725876 870.019165,234.142532 
	C867.053284,238.365845 860.748108,240.233337 860.931030,246.717438 
	C860.942627,247.127792 860.248108,247.579163 859.847595,247.976715 
	C856.565369,251.234299 853.198364,254.410995 850.016357,257.763367 
	C848.170593,259.708008 846.701599,262.005402 844.914795,264.012024 
	C842.005249,267.279480 838.797729,270.296417 836.057129,273.694244 
	C834.252441,275.931732 833.162964,278.730042 831.549377,281.140839 
	C827.590332,287.056305 820.578552,290.040497 817.354248,296.996216 
	C815.260803,301.512238 810.706970,304.850342 807.497620,308.907776 
	C806.452087,310.229706 806.609497,312.600952 805.464722,313.729309 
	C800.788879,318.338043 794.482056,321.304779 791.581604,327.696198 
	C787.252686,327.423248 789.919128,331.447052 788.333984,332.994476 
	C784.759583,336.483917 781.321838,340.127045 778.020935,343.877075 
	C776.401062,345.717377 775.580688,348.391602 773.744202,349.882568 
	C770.457581,352.550873 769.300171,357.576599 764.347107,358.402863 
	C764.135803,358.438080 764.038147,359.601440 764.016663,360.243622 
	C763.953369,362.131958 763.352478,363.068054 761.671509,364.594208 
	C758.228699,367.719940 755.458984,372.114197 755.975281,377.483704 
	C756.067932,378.447968 756.123718,380.170959 755.742371,380.311493 
	C750.679199,382.177612 753.947021,386.425812 752.996521,389.417664 
	C752.462708,391.097717 754.576843,394.143524 750.614258,394.067841 
	C750.683289,401.028534 750.643738,407.993500 750.918030,414.946106 
	C750.969543,416.252472 752.755432,417.456512 752.903076,418.799835 
	C753.246460,421.924194 751.783630,426.626556 753.365051,427.972351 
	C757.809265,431.754395 755.373657,437.229950 758.016418,441.118469 
	C759.613342,443.468262 761.145264,445.909149 763.056763,447.986786 
	C765.726624,450.888733 768.762695,453.450226 771.570251,456.229889 
	C774.744873,459.373016 777.708252,462.744476 781.038330,465.707825 
	C782.274597,466.807953 784.948608,466.545288 785.834351,467.742279 
	C789.541992,472.752502 793.945435,476.106964 800.450256,476.041718 
	C801.039368,476.035767 801.632996,476.484375 802.224670,476.721252 
	C804.121826,477.480774 806.101440,479.052948 807.903381,478.870575 
	C822.200928,477.423401 836.906006,482.471710 850.912048,476.068573 
	C854.173523,474.577515 859.616943,474.925903 860.862915,472.666748 
	C862.607117,469.504059 865.355713,470.896271 866.910950,469.288696 
	C870.056030,466.037720 872.510132,461.870148 877.888245,461.914581 
	C878.252380,461.917633 878.756470,461.158905 878.970703,460.658234 
	C881.299988,455.214264 884.659241,450.722107 889.746094,447.430084 
	C891.822571,446.086212 894.517212,443.880493 894.742126,441.827240 
	C895.465393,435.223358 901.128418,433.013580 904.734314,429.009125 
	C907.055054,426.431763 910.538147,424.416870 911.743286,421.438873 
	C913.330994,417.515594 916.201965,414.974274 918.728577,412.036560 
	C920.902893,409.508484 925.127136,407.689758 925.654114,405.008789 
	C926.912659,398.606445 931.514099,396.087677 935.986938,392.897858 
	C937.625854,391.729095 939.583008,389.846802 939.797485,388.094482 
	C940.181213,384.959534 941.261047,383.451111 944.049500,381.741974 
	C946.969177,379.952332 948.874329,376.439636 951.080505,373.570526 
	C954.096375,369.648407 956.977844,365.622925 960.681458,360.606049 
	C960.926697,364.366211 961.072021,366.593689 961.229004,369.000000 
	C1001.397522,369.000000 1041.198730,369.000000 1081.000000,369.000000 
M394.487488,517.066772 
	C393.832184,520.042786 393.231842,523.032227 392.510040,525.992004 
	C391.041290,532.014587 388.956818,537.945251 388.114258,544.050171 
	C386.358490,556.771790 391.491333,568.574097 394.212891,580.645630 
	C394.913757,583.754456 397.694916,586.653931 400.132660,589.018372 
	C401.705475,590.543762 403.241089,591.279602 403.214691,594.007874 
	C403.198761,595.658997 404.860046,598.127747 406.410492,598.850769 
	C412.399048,601.643616 414.450958,609.065002 421.692749,610.718689 
	C425.192627,611.517883 427.630859,616.644409 431.170685,617.671265 
	C435.658539,618.973083 439.684753,623.014526 445.029999,621.069580 
	C445.499298,620.898926 446.334930,621.618286 446.953339,622.000488 
	C447.977539,622.633484 448.953857,623.892090 449.966888,623.909119 
	C458.959534,624.060913 467.955933,624.022217 476.950775,623.965027 
	C478.039795,623.958069 479.171326,623.630066 480.205627,623.243408 
	C484.765564,621.538757 489.303223,619.773621 493.835327,617.995667 
	C495.241241,617.444092 496.692413,616.926819 497.969452,616.143677 
	C501.180054,614.174866 504.263184,611.997925 507.476471,610.033813 
	C509.369995,608.876526 511.634338,608.240845 513.337585,606.877808 
	C515.721008,604.970398 518.076843,602.843811 519.822937,600.371948 
	C521.955750,597.352417 525.872925,596.018982 526.326477,591.164429 
	C526.700317,587.163330 531.297729,584.125854 531.310120,579.436157 
	C536.981262,578.257935 531.056519,570.483765 536.988281,569.453796 
	C537.658875,562.320496 538.596802,555.197449 538.870972,548.048950 
	C538.983643,545.110352 537.396057,542.145813 537.074646,539.140381 
	C536.739929,536.011169 537.035522,532.817810 536.980286,529.653748 
	C536.960571,528.522034 536.841309,526.442566 536.563477,526.407349 
	C532.432495,525.884216 534.458862,522.739319 534.022461,520.711304 
	C533.783508,519.600830 534.128174,518.201416 533.570007,517.353333 
	C531.864319,514.761658 529.749390,512.441895 527.995056,509.878540 
	C527.105408,508.578583 526.723450,506.942291 525.969543,505.534302 
	C525.475342,504.611389 524.807068,503.746948 524.077393,502.990845 
	C520.684692,499.475494 517.277161,495.973022 513.806335,492.535187 
	C511.881561,490.628784 509.789062,487.308441 507.830109,487.350128 
	C503.780212,487.436279 502.740509,484.852020 500.880157,482.580139 
	C500.241241,481.799866 499.049316,481.245941 498.022003,481.049988 
	C493.908875,480.265472 489.753357,479.704773 485.634949,478.944855 
	C485.034973,478.834106 484.587921,478.036591 484.005676,477.655182 
	C483.095856,477.059113 482.140137,476.091339 481.188019,476.072266 
	C474.361084,475.935486 467.492432,475.554474 460.711548,476.129730 
	C454.537109,476.653503 447.644806,473.289307 442.264435,478.994934 
	C434.806274,476.781036 429.673523,483.467010 422.943665,484.095795 
	C422.588226,484.128998 422.387115,485.088959 421.988068,485.492889 
	C417.857330,489.674133 413.753937,493.884735 409.533386,497.974121 
	C406.492889,500.920135 402.822235,503.340363 400.292603,506.651947 
	C398.022766,509.623474 396.926361,513.491394 394.487488,517.066772 
M76.517548,486.927155 
	C73.891495,489.470032 71.748428,492.842499 67.234558,492.104523 
	C66.914200,492.052155 66.418877,493.146515 65.986061,493.692688 
	C63.404907,496.950012 60.188816,499.895416 58.407024,503.542175 
	C56.553806,507.335083 50.978821,508.421448 51.698837,514.205383 
	C52.029770,516.863708 50.132465,520.064514 48.598732,522.633118 
	C45.679806,527.521484 42.631378,532.522888 43.129539,538.264893 
	C44.042980,548.793579 40.217747,559.625916 45.840706,569.936768 
	C48.205791,574.273682 48.207794,579.862244 50.372726,584.357483 
	C51.982239,587.699524 53.125854,591.911438 57.579895,593.448059 
	C58.966335,593.926392 60.259396,595.666626 60.903137,597.132996 
	C63.523209,603.101135 65.376266,605.070251 70.788567,607.077759 
	C71.329475,607.278442 71.535347,608.255127 72.025337,608.742310 
	C74.144470,610.849365 75.984238,613.587463 78.540779,614.819153 
	C82.028976,616.499756 86.077644,617.015198 89.882118,618.044739 
	C90.185547,618.126831 90.696854,618.301636 90.710724,618.467041 
	C91.067955,622.727112 94.335907,620.491028 96.344246,620.969238 
	C97.291039,621.194702 99.065582,620.816772 99.194328,621.172363 
	C101.022636,626.222412 105.212128,623.769836 108.280029,623.886536 
	C116.599113,624.203186 124.938217,624.009094 133.269241,623.978088 
	C134.404160,623.973877 136.490555,623.877930 136.529526,623.599609 
	C137.090363,619.593201 140.131531,621.370667 142.214035,621.004456 
	C143.012024,620.864136 144.283051,621.058716 144.550385,620.620178 
	C147.221283,616.238831 152.778824,617.996338 156.112808,615.031677 
	C157.940430,613.406616 160.055588,612.102539 162.056946,610.675964 
	C163.995285,609.294373 164.893509,607.124695 168.060684,606.548706 
	C170.702026,606.068481 172.873383,602.193420 174.928925,599.568176 
	C176.465851,597.605286 176.992844,594.597595 178.834854,593.177612 
	C183.453552,589.617004 186.069641,585.372620 186.025360,579.505920 
	C186.016953,578.391907 186.280258,576.319214 186.527588,576.302490 
	C190.676422,576.021240 188.456253,572.881897 188.974030,571.045471 
	C189.191925,570.272583 188.919861,568.794189 189.218460,568.696167 
	C194.154495,567.075317 191.725784,563.017883 191.889862,560.109985 
	C192.245987,553.798462 192.369034,547.422974 191.859146,541.132690 
	C191.559830,537.439941 193.789749,533.531372 189.349411,529.806458 
	C186.709213,527.591675 187.501434,521.660645 185.864319,517.773621 
	C184.072189,513.518555 184.440659,507.994171 178.671387,505.645264 
	C176.863937,504.909424 176.300537,501.341278 174.936569,499.218079 
	C173.949783,497.681946 172.798660,496.080292 171.336380,495.057526 
	C168.580002,493.129730 165.401779,491.801514 162.663071,489.852844 
	C158.913864,487.185211 155.724075,483.562561 151.704956,481.495758 
	C148.400955,479.796692 144.239212,479.760712 140.454208,479.004883 
	C139.354935,478.785400 137.288544,478.659821 137.280365,478.432983 
	C137.142014,474.598633 134.273666,476.076843 132.519470,476.054932 
	C123.023460,475.936340 113.525169,475.991302 104.027710,476.008270 
	C102.878342,476.010315 100.972862,475.748596 100.696724,476.277222 
	C97.877350,481.674347 91.930077,477.816650 88.026505,480.799988 
	C85.094292,483.040955 80.765877,483.444794 77.089417,484.751953 
	C76.901329,484.818878 77.000381,485.693329 76.517548,486.927155 
M222.501633,584.935303 
	C223.994827,587.081482 226.618958,589.152710 226.766922,591.387939 
	C227.192993,597.824280 233.216110,599.627747 236.262787,603.771301 
	C239.211487,607.781555 244.170868,610.542236 248.669830,613.111633 
	C252.294220,615.181458 255.566483,618.534058 260.366455,618.032532 
	C261.132812,617.952515 262.287689,618.012939 262.679504,618.488708 
	C265.972260,622.487671 271.243652,623.090393 275.331146,623.630188 
	C284.339935,624.819702 293.614166,624.023865 302.779633,623.966797 
	C303.835632,623.960266 305.796143,623.531372 305.805695,623.246887 
	C305.927277,619.625793 308.893921,620.711060 310.177826,621.135498 
	C314.941956,622.710510 317.745087,618.593201 321.461334,617.411926 
	C325.330933,616.181885 328.196960,611.048950 331.964722,610.427063 
	C337.014008,609.593689 338.416473,605.330383 341.803497,603.127258 
	C347.572083,599.375061 348.747223,590.990479 355.550293,587.752380 
	C355.843903,587.612610 355.981049,586.871277 355.974030,586.413513 
	C355.856171,578.743469 362.438995,572.631287 361.034851,564.657471 
	C360.956390,564.211853 361.130127,563.343384 361.358856,563.278320 
	C365.505157,562.100281 363.830750,558.705200 363.934906,556.190430 
	C364.148499,551.033020 364.007599,545.860657 363.996002,540.694458 
	C363.993774,539.703552 364.185486,537.962524 363.831024,537.834778 
	C358.775085,536.012390 361.780182,531.799255 361.010162,528.752014 
	C360.812714,527.970703 360.861694,526.491882 360.616608,526.452271 
	C356.391693,525.769409 358.572174,522.471741 357.971100,520.320923 
	C357.626190,519.086792 356.938873,517.952454 356.475616,516.746399 
	C355.291931,513.664490 354.145233,510.568390 352.989471,507.475830 
	C352.820038,507.022491 352.822083,506.398315 352.508148,506.121887 
	C348.215454,502.341248 343.859314,498.632629 339.565887,494.852814 
	C337.334320,492.888214 333.961182,491.168701 333.267456,488.724365 
	C331.750153,483.378174 326.473511,483.828156 323.289520,481.346985 
	C320.390686,479.088135 315.275238,479.690491 311.145111,478.983459 
	C310.097778,478.804169 309.013702,478.582581 308.068604,478.127106 
	C306.879059,477.553894 305.833069,476.131897 304.693542,476.096649 
	C298.200378,475.895844 291.661896,475.575531 285.208832,476.122131 
	C279.195648,476.631439 272.999084,473.953735 267.028381,478.703949 
	C264.067261,481.059753 258.654327,480.334412 254.350327,481.001099 
	C253.706146,481.100891 252.852142,480.958191 252.448242,481.320831 
	C249.300720,484.147217 246.544159,487.515930 243.090836,489.873413 
	C234.949112,495.431335 228.843353,502.677277 223.979477,511.087585 
	C221.672089,515.077393 218.017990,518.562561 218.944870,523.880676 
	C219.054108,524.507507 218.506760,525.303162 218.136459,525.947327 
	C217.474884,527.098206 216.104568,528.186218 216.091644,529.312744 
	C215.944351,542.143188 215.989609,554.975952 216.014923,567.808044 
	C216.016830,568.775024 216.164200,570.558655 216.403793,570.586487 
	C220.514648,571.064026 218.554214,574.204407 218.992950,576.247375 
	C219.162811,577.038269 219.150345,578.524109 219.366913,578.551819 
	C223.291748,579.053650 221.654648,582.088928 222.501633,584.935303 
z"/>
<path fill="#FFFFFF" opacity="1.000000" stroke="none" 
	d="
M1081.000000,888.555847 
	C1049.099854,889.000000 1017.199646,889.000000 985.088440,889.000000 
	C985.088440,886.606567 985.088440,884.654663 985.088440,881.187500 
	C982.315247,882.892090 980.254028,883.939697 978.450500,885.323120 
	C976.188110,887.058472 974.399902,890.100342 971.935608,890.728455 
	C967.871826,891.764221 963.887451,892.134399 961.067383,895.839172 
	C960.568848,896.494202 958.463562,895.726196 957.215820,896.054504 
	C954.952942,896.650085 951.397827,893.980530 950.526550,898.591675 
	C950.464355,898.920959 948.404602,898.976196 947.272583,898.982910 
	C941.116577,899.019592 934.945740,899.254395 928.809509,898.904358 
	C925.231995,898.700195 921.031372,900.881653 918.115845,896.291626 
	C917.475464,895.283447 914.029480,896.057373 911.052734,896.007935 
	C906.342896,893.174561 902.496948,890.222473 897.289062,891.186707 
	C897.289062,893.322327 897.289062,895.056946 897.289062,896.833130 
	C902.052246,896.833130 906.526428,896.833130 911.000671,896.833130 
	C911.948853,899.247925 912.897095,901.662720 914.092407,904.706787 
	C771.812988,904.706787 630.723083,904.706787 489.256073,904.706787 
	C489.130646,903.105408 488.993774,901.357971 488.809082,899.000183 
	C480.471161,899.000183 472.026825,899.145630 463.594696,898.889832 
	C461.676514,898.831665 459.812134,897.355408 457.899139,896.591553 
	C457.180664,896.304565 456.401825,896.148926 455.637482,896.000488 
	C453.417816,895.569641 450.257690,897.409851 449.478149,893.355469 
	C449.423035,893.068848 447.658234,893.008240 446.690002,893.016907 
	C440.847473,893.069458 436.769714,890.330261 432.720276,886.140991 
	C430.619507,883.967651 426.975372,882.818848 424.578796,880.311340 
	C422.152832,877.772949 419.347260,875.576782 417.075317,872.916931 
	C414.088165,869.419617 411.149200,865.803345 408.780579,861.881226 
	C407.031006,858.984192 406.779663,855.133728 404.879150,852.387268 
	C401.486267,847.484131 405.714752,840.599792 400.267120,836.389343 
	C399.745483,835.986206 400.013367,834.489868 400.009369,833.500549 
	C399.989105,828.500732 399.905060,823.498169 400.038086,818.501770 
	C400.110626,815.777588 398.875977,812.639221 402.496613,810.773743 
	C403.205414,810.408508 402.800323,807.987549 403.011017,806.529541 
	C403.658478,802.050293 402.953491,796.518066 405.352844,793.344971 
	C409.211945,788.241455 409.992004,781.105286 416.356384,777.443115 
	C417.998169,776.498352 417.669006,772.248474 420.835388,770.285583 
	C423.788269,768.455017 426.037750,765.128723 427.955414,762.059937 
	C432.840607,754.242432 439.061218,747.755005 446.088013,741.874451 
	C447.642578,740.573486 447.925964,737.847778 449.341400,736.267883 
	C452.914307,732.279785 456.977814,728.726624 460.490753,724.691040 
	C462.589355,722.280212 463.836365,719.145691 465.808258,716.601562 
	C467.488983,714.433044 469.815033,712.773071 471.572632,710.653564 
	C473.851593,707.905273 475.696136,704.793518 478.007690,702.076416 
	C480.966431,698.598633 484.190979,695.345459 487.344818,692.037354 
	C487.620392,691.748230 488.617462,691.760864 488.614990,691.647827 
	C488.426483,682.977905 498.141785,681.551331 500.765991,675.020203 
	C503.507599,668.196838 509.654541,664.409851 514.340637,659.318848 
	C514.925903,658.682983 515.958923,657.944519 515.909912,657.322510 
	C515.577820,653.109497 519.231567,652.095032 521.346130,649.684937 
	C525.465820,644.989380 530.407654,641.154541 533.372803,635.118469 
	C535.724487,630.331299 541.038818,626.995178 545.059692,623.037048 
	C545.639526,622.466248 546.891968,622.032837 546.903320,621.515320 
	C547.013428,616.523438 551.054932,614.745056 554.022888,611.838074 
	C557.475891,608.455933 559.851990,604.003784 562.998596,600.271667 
	C566.297852,596.358521 569.945740,592.738220 573.473450,589.020447 
	C573.863220,588.609619 574.887146,588.420349 574.903931,588.091858 
	C575.241394,581.495544 580.539185,579.134827 584.951172,575.903198 
	C586.281372,574.928894 587.938171,573.009277 587.809692,571.680908 
	C587.313477,566.553406 591.613953,565.021790 594.299988,562.567322 
	C597.602539,559.549438 601.893860,557.552307 602.097778,552.221069 
	C602.114319,551.789246 603.600281,551.459900 603.671387,550.975525 
	C603.909912,549.350586 604.437378,547.334106 603.744934,546.080139 
	C600.384766,539.995605 593.341431,537.221313 590.571167,529.978271 
	C588.712402,525.118408 582.901245,521.855225 579.175842,517.599854 
	C575.575867,513.487854 572.380798,509.021362 569.012695,504.706787 
	C568.581787,504.154785 568.289551,503.423676 567.745911,503.042938 
	C565.524963,501.487579 562.467529,500.980804 562.731995,496.944214 
	C562.814148,495.690674 559.815063,494.454529 558.740662,492.863342 
	C555.923401,488.690796 551.181519,486.192108 549.706970,480.643463 
	C548.924316,477.698456 545.133911,475.592377 542.815063,473.005524 
	C540.219238,470.109680 537.555115,467.412476 535.772217,463.691956 
	C534.308777,460.638214 530.799683,458.605499 528.365967,455.964783 
	C525.807068,453.188263 521.668396,451.448639 521.975769,446.668823 
	C522.005310,446.209229 521.835815,445.364960 521.618408,445.315430 
	C515.238220,443.861847 514.159668,436.543213 508.787933,433.758911 
	C506.920807,432.791138 506.531189,429.303253 504.925110,427.431091 
	C501.782837,423.768372 498.164398,420.517609 494.941864,416.918396 
	C493.687500,415.517426 492.884491,413.678772 492.023926,411.965179 
	C489.428070,406.796265 482.133820,404.778137 480.793579,400.441925 
	C478.230042,392.147888 469.908691,389.664886 466.778961,383.357391 
	C464.415100,378.593414 461.385254,375.049438 457.958679,371.526276 
	C452.381012,365.791443 449.552338,357.550598 441.683472,353.857574 
	C440.521667,353.312317 439.013611,351.263824 439.258209,350.326416 
	C440.849640,344.227783 434.373199,343.835388 432.242676,340.392883 
	C430.049896,336.849854 426.555664,334.283447 424.661896,330.006104 
	C423.067444,326.404846 418.854004,323.955963 415.770050,321.028473 
	C415.267029,320.550964 414.047760,320.051331 414.106171,319.874237 
	C415.163055,316.670349 412.704010,315.224213 410.992432,313.434601 
	C407.279541,309.552460 404.635559,305.411926 404.840546,299.582611 
	C404.967438,295.973145 404.764801,291.487366 402.783905,288.831787 
	C397.002869,281.081757 401.412201,272.662506 400.126587,264.706970 
	C399.947021,263.595917 401.534973,262.228973 402.221100,260.936127 
	C402.574860,260.269531 402.871246,259.523376 402.977051,258.782257 
	C403.685699,253.817307 403.893005,248.726196 405.171692,243.917664 
	C405.936951,241.039795 408.308594,238.573090 410.029663,235.968811 
	C413.348083,230.947617 416.717102,225.959900 420.557800,220.222290 
	C423.650726,220.589005 425.813995,217.997681 428.433716,214.775879 
	C430.405518,212.350891 432.604095,208.830582 437.141113,208.792389 
	C439.386414,208.773499 442.979034,207.047729 443.546265,205.306992 
	C444.529755,202.289047 446.292297,203.331238 447.992126,202.969482 
	C450.606903,202.413010 454.344879,204.991241 455.626709,200.299347 
	C455.717560,199.966843 457.465454,200.010101 458.443085,200.008545 
	C469.442963,199.991043 480.443665,199.940048 491.441711,200.084152 
	C492.646332,200.099945 493.827179,201.293457 495.035370,201.908630 
	C495.809082,202.302567 496.580414,202.810715 497.409302,202.965652 
	C499.658722,203.386078 502.797729,201.662750 503.514740,205.677200 
	C503.552124,205.886581 504.730835,206.054489 505.342316,205.972885 
	C509.661621,205.396423 512.356995,206.966766 514.279297,211.098816 
	C514.937378,212.513290 518.449036,212.345078 520.151001,213.591049 
	C522.490295,215.303665 524.319092,217.703598 526.420227,219.754028 
	C529.253723,222.519119 532.321045,225.068756 534.949097,228.013351 
	C537.521301,230.895432 539.573730,234.234619 542.030029,237.229019 
	C544.229736,239.910629 546.730774,242.342972 548.985962,244.981781 
	C551.593384,248.032715 555.925598,249.651459 556.214111,254.717270 
	C556.298889,256.207275 558.561890,257.785461 560.113220,258.937408 
	C563.848938,261.711487 567.096680,266.289825 570.174500,271.060120 
	C572.572327,274.776489 576.311279,277.602386 579.214050,281.027557 
	C580.960205,283.087982 583.840088,283.945862 584.280518,287.582916 
	C584.573547,290.003143 586.925110,293.034790 589.176392,294.183472 
	C594.334045,296.814972 596.881042,300.874084 599.234009,305.897278 
	C600.744141,309.121246 604.565491,311.209534 607.125427,314.012726 
	C608.946960,316.007355 610.297424,318.424316 612.030762,320.509308 
	C614.175049,323.088684 616.793335,325.316956 618.675720,328.061188 
	C621.632996,332.372467 627.131165,334.680847 628.146301,340.596405 
	C628.414551,342.159241 630.090088,343.799530 631.540894,344.781982 
	C636.330017,348.025146 639.322205,352.467926 642.401672,357.321930 
	C645.525818,362.246368 650.628479,365.961731 655.067383,369.982849 
	C656.811340,371.562653 657.073608,373.973206 658.300110,375.761932 
	C661.264648,380.085541 665.476746,382.690918 668.798828,386.344574 
	C669.129700,386.708405 669.803711,387.155029 669.739258,387.424866 
	C668.573425,392.305817 673.219788,393.995453 675.468872,396.335052 
	C678.974976,399.982208 682.601257,403.158234 684.992065,407.880280 
	C686.753113,411.358521 690.006714,414.213593 693.003479,416.889038 
	C695.147583,418.803284 696.932190,420.280304 697.261230,423.570435 
	C697.433899,425.296936 700.042419,426.983551 701.834045,428.304169 
	C706.251648,431.560516 710.366089,434.916321 711.095398,440.887878 
	C711.149353,441.329620 712.334412,441.543854 712.815918,442.037292 
	C715.826416,445.122711 718.879150,448.174957 721.741943,451.394684 
	C726.323669,456.547760 730.892639,461.722931 735.207214,467.097382 
	C736.843689,469.135986 737.587036,471.868347 739.059204,474.069214 
	C740.269409,475.878479 741.858948,477.471375 743.451294,478.979736 
	C746.532593,481.898438 750.068604,484.405243 752.798035,487.609314 
	C755.933960,491.290588 758.043518,495.863068 761.267090,499.447510 
	C763.948364,502.428955 767.558289,504.363861 768.686279,508.803802 
	C769.535889,512.147644 771.460083,515.234192 773.023926,518.376587 
	C774.860840,522.067688 776.908691,525.655579 778.678040,529.377197 
	C779.141296,530.351746 778.986084,531.655823 778.988220,532.808716 
	C779.007812,543.641968 779.528442,554.513245 778.754761,565.290955 
	C778.418457,569.976624 775.462830,574.493713 773.586792,579.041992 
	C772.506042,581.662415 771.441101,584.338745 769.953735,586.731750 
	C766.969971,591.532532 763.822632,596.243835 760.511353,600.824829 
	C757.953430,604.363586 752.940430,606.152222 752.970093,611.541382 
	C752.972595,611.998230 752.747253,612.815674 752.509766,612.862000 
	C746.009521,614.132446 745.335999,622.106018 739.516541,624.116028 
	C739.764709,628.972900 735.169983,630.549561 732.917480,633.701233 
	C731.609314,635.531555 729.480896,636.757690 728.048340,638.521179 
	C726.106873,640.911255 724.666199,643.715027 722.676697,646.057678 
	C718.655701,650.792297 713.916016,654.997192 710.431519,660.078125 
	C708.140808,663.418274 706.002319,666.749146 702.995850,669.467407 
	C702.057556,670.315796 701.052612,671.090454 699.323303,672.525085 
	C714.813782,672.525085 729.574341,672.525085 744.666260,672.525085 
	C744.666260,675.538269 744.666260,677.940369 744.666260,680.682495 
	C729.157471,680.682495 713.408630,680.682495 697.331299,680.682495 
	C697.095642,679.266479 696.825439,677.642883 696.555237,676.019287 
	C694.694519,684.584900 685.442993,686.718811 682.010681,693.214600 
	C680.068848,696.889648 677.560181,699.625916 674.970276,702.523071 
	C672.651184,705.117065 669.977417,707.409851 667.801453,710.110535 
	C666.240295,712.048157 665.535767,714.690369 663.927429,716.572327 
	C661.093750,719.888062 657.879211,722.881042 654.773926,725.958435 
	C654.378845,726.350098 653.232544,726.375488 653.190979,726.675293 
	C652.058472,734.858521 644.397339,737.679626 639.931641,743.108398 
	C637.651733,745.880005 636.229797,749.357422 634.281250,752.758179 
	C681.553467,752.758179 728.940186,752.758179 776.664185,752.758179 
	C776.664185,755.518188 776.664185,757.923462 776.664185,760.673279 
	C729.034119,760.673279 681.153931,760.673279 633.145203,760.673279 
	C633.036377,758.444519 632.932983,756.327087 632.797241,753.546631 
	C629.594604,756.624695 626.674927,759.214722 624.021545,762.053650 
	C622.105774,764.102966 623.358215,767.500122 620.137695,769.564392 
	C616.563660,771.855469 613.967041,775.710510 611.057556,778.984741 
	C609.266296,781.000427 607.833984,783.344666 605.978149,785.291321 
	C602.786072,788.639282 599.384338,791.787048 596.084900,795.033325 
	C595.683105,795.428650 595.051880,795.920410 595.061890,796.355164 
	C595.210938,802.831543 588.824158,804.591248 585.926453,808.870850 
	C584.272827,811.313110 580.370972,812.190063 580.956604,816.264343 
	C581.030884,816.781067 580.694885,817.682068 580.284546,817.894653 
	C573.812561,821.247070 570.798645,827.501587 566.790955,833.082886 
	C563.336731,837.893372 558.540100,841.741211 554.314331,845.992188 
	C554.127808,846.179749 553.445740,846.148071 553.446960,846.209900 
	C553.563232,852.286316 548.128845,854.472290 544.992126,858.241211 
	C542.769470,860.911926 539.820496,863.112671 538.121582,866.057373 
	C534.261169,872.748962 528.796936,877.851807 523.010376,882.672791 
	C520.405029,884.843323 517.360657,886.486877 513.582886,888.986816 
	C637.084961,888.986816 759.578674,888.986816 882.976624,888.987793 
	C886.764465,888.988708 889.648132,888.988708 892.531799,888.988708 
	C892.807556,888.489258 893.083374,887.989868 893.359131,887.490417 
	C889.943726,884.978394 886.528320,882.466370 883.112915,879.954346 
	C883.070740,879.515015 883.028503,879.075745 882.959473,878.045227 
	C882.624451,877.358337 882.316223,877.262573 882.008057,877.166809 
	C879.680298,874.737610 877.350647,872.310242 875.025635,869.878540 
	C873.513855,868.297424 872.027039,866.691833 870.488403,865.137390 
	C870.074646,864.719421 869.170959,864.530151 869.068176,864.098633 
	C867.023315,855.515930 858.356750,852.220276 854.078003,845.225159 
	C850.325134,839.089539 844.310669,834.367676 839.563538,828.792847 
	C837.963318,826.913635 837.500000,824.087769 835.964722,822.127014 
	C833.194458,818.588928 829.958130,815.419739 827.013916,812.012268 
	C825.250244,809.971191 823.781250,807.672302 821.985779,805.662659 
	C818.740479,802.030090 815.261292,798.604309 812.064575,794.931458 
	C810.823914,793.506042 810.064636,791.655640 809.120239,789.979553 
	C806.312256,784.996033 799.505981,782.687134 797.793945,778.376526 
	C794.722961,770.644531 788.400208,766.914917 783.393433,761.525024 
	C782.573425,760.642334 783.373535,758.271240 782.559875,757.363098 
	C779.594788,754.054138 776.146423,751.181763 773.122437,747.920227 
	C771.783386,746.475952 771.049011,744.479126 769.993835,742.761536 
	C768.821533,740.853027 767.906799,738.652039 766.334106,737.149780 
	C762.175842,733.177795 760.457764,729.426514 757.639404,724.299561 
	C756.495789,722.219055 757.755737,717.822815 753.367737,717.588013 
	C753.195801,717.578735 753.214233,715.744202 752.982544,714.799683 
	C752.270020,711.895081 755.073181,707.819336 750.175110,706.250000 
	C749.986267,706.189453 750.010132,705.327087 750.009521,704.838257 
	C749.999695,696.671631 748.341736,688.013672 750.563843,680.504822 
	C752.139771,675.179565 751.878723,669.894531 753.533508,665.065613 
	C754.034058,663.604919 755.710693,660.962830 756.891235,658.948730 
	C758.595398,656.041077 759.273132,652.503174 761.112793,649.711304 
	C762.997314,646.851379 765.667297,644.477539 768.148315,642.048950 
	C772.360596,637.925781 776.604919,633.825623 781.016052,629.919373 
	C783.136902,628.041199 785.491821,626.204590 788.066223,625.126282 
	C790.472839,624.118469 793.325684,623.057800 797.461487,620.389221 
	C798.549988,619.687012 800.394165,620.269836 801.825684,619.959656 
	C804.131287,619.460083 807.563416,621.796204 808.510864,617.387878 
	C808.585388,617.041199 810.641418,617.022095 811.777161,617.017578 
	C819.443665,616.987183 827.119995,616.780151 834.772339,617.110413 
	C837.847412,617.243164 842.087341,614.763550 843.821777,619.879395 
	C843.899536,620.108643 845.092590,620.092041 845.728577,619.978882 
	C851.067200,619.028625 854.763489,622.920776 859.253601,624.298035 
	C863.187805,625.504761 866.358582,626.364746 867.386780,630.700745 
	C872.630249,629.823486 874.724121,634.253723 877.508911,637.090393 
	C880.998230,640.644592 883.740845,644.918640 887.050293,648.665955 
	C890.776428,652.885193 894.760864,656.877380 898.668579,660.934021 
	C899.312195,661.602295 900.740601,662.049377 900.787659,662.675171 
	C901.273438,669.139404 906.299133,671.788696 910.715576,675.050293 
	C912.225891,676.165588 914.083130,677.582214 914.548157,679.213074 
	C917.044678,687.967285 926.228821,691.182556 930.088501,698.283691 
	C932.067200,701.924011 934.671509,704.628174 937.061096,707.677368 
	C938.874878,709.991699 941.168640,711.930176 943.257141,714.027588 
	C943.359863,714.130737 943.630249,714.116699 943.675110,714.220703 
	C946.902771,721.710022 954.286682,725.875183 958.466370,732.381348 
	C962.136658,738.094421 965.908813,743.286499 971.527344,747.077637 
	C971.934875,747.352722 972.512329,747.714661 972.577637,748.108093 
	C973.895203,756.041016 981.421387,759.135925 985.566162,764.852844 
	C989.718994,770.580933 993.669312,776.474060 998.118164,781.962769 
	C1001.019836,785.542664 1001.121948,791.704895 1003.400696,793.348938 
	C1007.969788,796.645203 1003.218323,803.104858 1008.854797,804.906982 
	C1009.176147,805.009705 1008.994568,806.781616 1008.995239,807.776733 
	C1009.002686,818.943359 1009.071289,830.111145 1008.901794,841.275208 
	C1008.882446,842.544495 1007.494507,843.784058 1006.774109,845.056030 
	C1006.474243,845.585571 1005.940186,846.243530 1006.055664,846.708008 
	C1007.740173,853.481812 1001.225769,857.673706 1000.616150,863.954590 
	C1000.369080,866.499451 995.772522,868.398987 993.795471,871.066711 
	C992.074402,873.388916 991.186890,876.355408 990.216675,879.136780 
	C990.162842,879.291199 992.701965,880.859558 994.065918,880.910095 
	C999.724792,881.119751 1005.395996,880.999573 1011.062622,880.999634 
	C1034.062622,880.999939 1057.062744,880.999939 1080.531372,881.000000 
	C1081.000000,883.370544 1081.000000,885.741150 1081.000000,888.555847 
M648.000427,557.498291 
	C648.806946,561.593994 648.238342,567.547913 650.717896,569.382812 
	C655.307922,572.779419 656.492249,578.245239 660.672607,581.671692 
	C663.116760,583.674988 664.104370,587.427795 668.298218,587.065002 
	C668.840332,587.018066 669.651611,587.688477 670.004211,588.240112 
	C672.034058,591.415588 674.744934,592.855103 678.544922,592.029846 
	C679.142334,591.900146 680.352356,592.062012 680.391174,592.261719 
	C681.224792,596.547668 684.613281,594.489014 686.963135,595.024414 
	C689.172302,595.527710 691.335205,596.234009 693.104492,596.734009 
	C695.466858,596.164856 697.859619,595.446472 700.304321,595.038635 
	C702.812073,594.620300 705.561768,595.010437 707.861816,594.139343 
	C711.291626,592.840271 714.525757,590.912903 717.647339,588.942627 
	C720.892334,586.894409 724.064453,584.662598 726.963989,582.158447 
	C728.999756,580.400330 731.012939,578.292419 732.185303,575.920166 
	C735.365540,569.485046 739.690247,563.042847 740.618347,556.204102 
	C741.950989,546.384033 741.655762,536.416626 735.444885,527.057495 
	C732.194763,522.159790 729.421448,516.777771 724.672729,513.686890 
	C721.061890,511.336670 719.120178,507.255768 714.076782,505.899170 
	C710.567383,504.955078 706.629639,502.220093 702.929138,502.236786 
	C694.672119,502.273956 686.063782,499.965912 678.161377,504.047150 
	C672.331787,507.057922 666.258972,509.927155 661.199768,513.987488 
	C657.675049,516.816284 655.743164,521.599060 652.966858,525.412231 
	C652.248779,526.398499 650.370544,526.873413 650.156006,527.835449 
	C649.210388,532.075562 648.733093,536.417664 647.971924,540.702515 
	C647.608704,542.747131 649.532043,545.827209 645.482727,546.474854 
	C645.207336,546.518921 645.091614,550.308105 645.321594,550.356445 
	C649.309998,551.194336 647.699463,554.274170 648.000427,557.498291 
M498.432404,896.756714 
	C503.170593,896.756714 507.908783,896.756714 512.821533,896.756714 
	C512.821533,894.881714 512.821533,893.138184 512.821533,890.642639 
	C508.026001,892.739624 502.693542,892.146851 498.432404,896.756714 
z"/>
<path fill="#FFFFFF" opacity="1.000000" stroke="none" 
	d="
M1081.000000,368.555847 
	C1041.198730,369.000000 1001.397522,369.000000 961.229004,369.000000 
	C961.072021,366.593689 960.926697,364.366211 960.681458,360.606049 
	C956.977844,365.622925 954.096375,369.648407 951.080505,373.570526 
	C948.874329,376.439636 946.969177,379.952332 944.049500,381.741974 
	C941.261047,383.451111 940.181213,384.959534 939.797485,388.094482 
	C939.583008,389.846802 937.625854,391.729095 935.986938,392.897858 
	C931.514099,396.087677 926.912659,398.606445 925.654114,405.008789 
	C925.127136,407.689758 920.902893,409.508484 918.728577,412.036560 
	C916.201965,414.974274 913.330994,417.515594 911.743286,421.438873 
	C910.538147,424.416870 907.055054,426.431763 904.734314,429.009125 
	C901.128418,433.013580 895.465393,435.223358 894.742126,441.827240 
	C894.517212,443.880493 891.822571,446.086212 889.746094,447.430084 
	C884.659241,450.722107 881.299988,455.214264 878.970703,460.658234 
	C878.756470,461.158905 878.252380,461.917633 877.888245,461.914581 
	C872.510132,461.870148 870.056030,466.037720 866.910950,469.288696 
	C865.355713,470.896271 862.607117,469.504059 860.862915,472.666748 
	C859.616943,474.925903 854.173523,474.577515 850.912048,476.068573 
	C836.906006,482.471710 822.200928,477.423401 807.903381,478.870575 
	C806.101440,479.052948 804.121826,477.480774 802.224670,476.721252 
	C801.632996,476.484375 801.039368,476.035767 800.450256,476.041718 
	C793.945435,476.106964 789.541992,472.752502 785.834351,467.742279 
	C784.948608,466.545288 782.274597,466.807953 781.038330,465.707825 
	C777.708252,462.744476 774.744873,459.373016 771.570251,456.229889 
	C768.762695,453.450226 765.726624,450.888733 763.056763,447.986786 
	C761.145264,445.909149 759.613342,443.468262 758.016418,441.118469 
	C755.373657,437.229950 757.809265,431.754395 753.365051,427.972351 
	C751.783630,426.626556 753.246460,421.924194 752.903076,418.799835 
	C752.755432,417.456512 750.969543,416.252472 750.918030,414.946106 
	C750.643738,407.993500 750.683289,401.028534 750.614258,394.067841 
	C754.576843,394.143524 752.462708,391.097717 752.996521,389.417664 
	C753.947021,386.425812 750.679199,382.177612 755.742371,380.311493 
	C756.123718,380.170959 756.067932,378.447968 755.975281,377.483704 
	C755.458984,372.114197 758.228699,367.719940 761.671509,364.594208 
	C763.352478,363.068054 763.953369,362.131958 764.016663,360.243622 
	C764.038147,359.601440 764.135803,358.438080 764.347107,358.402863 
	C769.300171,357.576599 770.457581,352.550873 773.744202,349.882568 
	C775.580688,348.391602 776.401062,345.717377 778.020935,343.877075 
	C781.321838,340.127045 784.759583,336.483917 788.333984,332.994476 
	C789.919128,331.447052 787.252686,327.423248 791.581604,327.696198 
	C794.482056,321.304779 800.788879,318.338043 805.464722,313.729309 
	C806.609497,312.600952 806.452087,310.229706 807.497620,308.907776 
	C810.706970,304.850342 815.260803,301.512238 817.354248,296.996216 
	C820.578552,290.040497 827.590332,287.056305 831.549377,281.140839 
	C833.162964,278.730042 834.252441,275.931732 836.057129,273.694244 
	C838.797729,270.296417 842.005249,267.279480 844.914795,264.012024 
	C846.701599,262.005402 848.170593,259.708008 850.016357,257.763367 
	C853.198364,254.410995 856.565369,251.234299 859.847595,247.976715 
	C860.248108,247.579163 860.942627,247.127792 860.931030,246.717438 
	C860.748108,240.233337 867.053284,238.365845 870.019165,234.142532 
	C871.716309,231.725876 874.739441,230.709152 875.301392,226.843597 
	C875.662964,224.355942 878.685120,222.023788 880.919250,220.088730 
	C885.295166,216.298523 889.792542,212.598907 894.563232,209.334763 
	C896.967834,207.689499 900.752441,207.770416 902.727600,205.850967 
	C906.416870,202.265884 912.020630,204.809525 914.504944,202.646774 
	C920.331665,197.574371 926.419495,200.805069 932.246277,200.161835 
	C938.665100,199.453217 945.249390,199.667923 951.711670,200.149506 
	C955.467468,200.429413 959.303467,201.620621 962.770935,203.153534 
	C965.548462,204.381409 967.993469,208.479813 970.290588,208.257065 
	C975.950256,207.708237 976.901550,215.383774 982.478027,214.168045 
	C983.191589,214.012466 984.744507,215.833481 985.271790,217.021439 
	C987.526855,222.102844 995.114319,223.031677 995.162048,229.897919 
	C995.167664,230.710419 997.083008,231.429153 997.971863,232.330566 
	C1001.045837,235.448303 1001.184692,241.294647 1003.413269,243.115250 
	C1007.241943,246.242844 1003.352539,252.192947 1008.720154,253.642349 
	C1009.043945,253.729797 1008.987976,255.485916 1008.989319,256.465729 
	C1009.005615,268.461670 1009.053650,280.458191 1008.915283,292.452545 
	C1008.901428,293.652435 1007.726135,294.842255 1007.077820,296.030151 
	C1006.732605,296.662598 1005.964844,297.353790 1006.064087,297.894226 
	C1006.956299,302.751495 1001.595154,305.571198 1001.675049,309.304901 
	C1001.806763,315.461182 996.027100,317.367157 994.258972,322.299683 
	C992.573181,327.002747 986.574341,330.158569 982.476379,333.999695 
	C981.973694,334.470825 981.084656,334.967712 981.077820,335.462341 
	C981.008911,340.458588 976.566528,342.054565 974.102783,345.220093 
	C971.539368,348.513733 966.193481,350.089386 966.716614,355.905701 
	C966.820801,357.063995 963.592590,358.522034 962.120239,361.000000 
	C1001.434387,361.000000 1040.748535,361.000000 1080.531372,361.000000 
	C1081.000000,363.370575 1081.000000,365.741119 1081.000000,368.555847 
z"/>
<path fill="#FFFFFF" opacity="1.000000" stroke="none" 
	d="
M394.899902,517.015320 
	C396.926361,513.491394 398.022766,509.623474 400.292603,506.651947 
	C402.822235,503.340363 406.492889,500.920135 409.533386,497.974121 
	C413.753937,493.884735 417.857330,489.674133 421.988068,485.492889 
	C422.387115,485.088959 422.588226,484.128998 422.943665,484.095795 
	C429.673523,483.467010 434.806274,476.781036 442.264435,478.994934 
	C447.644806,473.289307 454.537109,476.653503 460.711548,476.129730 
	C467.492432,475.554474 474.361084,475.935486 481.188019,476.072266 
	C482.140137,476.091339 483.095856,477.059113 484.005676,477.655182 
	C484.587921,478.036591 485.034973,478.834106 485.634949,478.944855 
	C489.753357,479.704773 493.908875,480.265472 498.022003,481.049988 
	C499.049316,481.245941 500.241241,481.799866 500.880157,482.580139 
	C502.740509,484.852020 503.780212,487.436279 507.830109,487.350128 
	C509.789062,487.308441 511.881561,490.628784 513.806335,492.535187 
	C517.277161,495.973022 520.684692,499.475494 524.077393,502.990845 
	C524.807068,503.746948 525.475342,504.611389 525.969543,505.534302 
	C526.723450,506.942291 527.105408,508.578583 527.995056,509.878540 
	C529.749390,512.441895 531.864319,514.761658 533.570007,517.353333 
	C534.128174,518.201416 533.783508,519.600830 534.022461,520.711304 
	C534.458862,522.739319 532.432495,525.884216 536.563477,526.407349 
	C536.841309,526.442566 536.960571,528.522034 536.980286,529.653748 
	C537.035522,532.817810 536.739929,536.011169 537.074646,539.140381 
	C537.396057,542.145813 538.983643,545.110352 538.870972,548.048950 
	C538.596802,555.197449 537.658875,562.320496 536.988281,569.453796 
	C531.056519,570.483765 536.981262,578.257935 531.310120,579.436157 
	C531.297729,584.125854 526.700317,587.163330 526.326477,591.164429 
	C525.872925,596.018982 521.955750,597.352417 519.822937,600.371948 
	C518.076843,602.843811 515.721008,604.970398 513.337585,606.877808 
	C511.634338,608.240845 509.369995,608.876526 507.476471,610.033813 
	C504.263184,611.997925 501.180054,614.174866 497.969452,616.143677 
	C496.692413,616.926819 495.241241,617.444092 493.835327,617.995667 
	C489.303223,619.773621 484.765564,621.538757 480.205627,623.243408 
	C479.171326,623.630066 478.039795,623.958069 476.950775,623.965027 
	C467.955933,624.022217 458.959534,624.060913 449.966888,623.909119 
	C448.953857,623.892090 447.977539,622.633484 446.953339,622.000488 
	C446.334930,621.618286 445.499298,620.898926 445.029999,621.069580 
	C439.684753,623.014526 435.658539,618.973083 431.170685,617.671265 
	C427.630859,616.644409 425.192627,611.517883 421.692749,610.718689 
	C414.450958,609.065002 412.399048,601.643616 406.410492,598.850769 
	C404.860046,598.127747 403.198761,595.658997 403.214691,594.007874 
	C403.241089,591.279602 401.705475,590.543762 400.132660,589.018372 
	C397.694916,586.653931 394.913757,583.754456 394.212891,580.645630 
	C391.491333,568.574097 386.358490,556.771790 388.114258,544.050171 
	C388.956818,537.945251 391.041290,532.014587 392.510040,525.992004 
	C393.231842,523.032227 393.832184,520.042786 394.899902,517.015320 
z"/>
<path fill="#FFFFFF" opacity="1.000000" stroke="none" 
	d="
M76.741646,486.559479 
	C77.000381,485.693329 76.901329,484.818878 77.089417,484.751953 
	C80.765877,483.444794 85.094292,483.040955 88.026505,480.799988 
	C91.930077,477.816650 97.877350,481.674347 100.696724,476.277222 
	C100.972862,475.748596 102.878342,476.010315 104.027710,476.008270 
	C113.525169,475.991302 123.023460,475.936340 132.519470,476.054932 
	C134.273666,476.076843 137.142014,474.598633 137.280365,478.432983 
	C137.288544,478.659821 139.354935,478.785400 140.454208,479.004883 
	C144.239212,479.760712 148.400955,479.796692 151.704956,481.495758 
	C155.724075,483.562561 158.913864,487.185211 162.663071,489.852844 
	C165.401779,491.801514 168.580002,493.129730 171.336380,495.057526 
	C172.798660,496.080292 173.949783,497.681946 174.936569,499.218079 
	C176.300537,501.341278 176.863937,504.909424 178.671387,505.645264 
	C184.440659,507.994171 184.072189,513.518555 185.864319,517.773621 
	C187.501434,521.660645 186.709213,527.591675 189.349411,529.806458 
	C193.789749,533.531372 191.559830,537.439941 191.859146,541.132690 
	C192.369034,547.422974 192.245987,553.798462 191.889862,560.109985 
	C191.725784,563.017883 194.154495,567.075317 189.218460,568.696167 
	C188.919861,568.794189 189.191925,570.272583 188.974030,571.045471 
	C188.456253,572.881897 190.676422,576.021240 186.527588,576.302490 
	C186.280258,576.319214 186.016953,578.391907 186.025360,579.505920 
	C186.069641,585.372620 183.453552,589.617004 178.834854,593.177612 
	C176.992844,594.597595 176.465851,597.605286 174.928925,599.568176 
	C172.873383,602.193420 170.702026,606.068481 168.060684,606.548706 
	C164.893509,607.124695 163.995285,609.294373 162.056946,610.675964 
	C160.055588,612.102539 157.940430,613.406616 156.112808,615.031677 
	C152.778824,617.996338 147.221283,616.238831 144.550385,620.620178 
	C144.283051,621.058716 143.012024,620.864136 142.214035,621.004456 
	C140.131531,621.370667 137.090363,619.593201 136.529526,623.599609 
	C136.490555,623.877930 134.404160,623.973877 133.269241,623.978088 
	C124.938217,624.009094 116.599113,624.203186 108.280029,623.886536 
	C105.212128,623.769836 101.022636,626.222412 99.194328,621.172363 
	C99.065582,620.816772 97.291039,621.194702 96.344246,620.969238 
	C94.335907,620.491028 91.067955,622.727112 90.710724,618.467041 
	C90.696854,618.301636 90.185547,618.126831 89.882118,618.044739 
	C86.077644,617.015198 82.028976,616.499756 78.540779,614.819153 
	C75.984238,613.587463 74.144470,610.849365 72.025337,608.742310 
	C71.535347,608.255127 71.329475,607.278442 70.788567,607.077759 
	C65.376266,605.070251 63.523209,603.101135 60.903137,597.132996 
	C60.259396,595.666626 58.966335,593.926392 57.579895,593.448059 
	C53.125854,591.911438 51.982239,587.699524 50.372726,584.357483 
	C48.207794,579.862244 48.205791,574.273682 45.840706,569.936768 
	C40.217747,559.625916 44.042980,548.793579 43.129539,538.264893 
	C42.631378,532.522888 45.679806,527.521484 48.598732,522.633118 
	C50.132465,520.064514 52.029770,516.863708 51.698837,514.205383 
	C50.978821,508.421448 56.553806,507.335083 58.407024,503.542175 
	C60.188816,499.895416 63.404907,496.950012 65.986061,493.692688 
	C66.418877,493.146515 66.914200,492.052155 67.234558,492.104523 
	C71.748428,492.842499 73.891495,489.470032 76.741646,486.559479 
z"/>
<path fill="#FFFFFF" opacity="1.000000" stroke="none" 
	d="
M222.268448,584.557983 
	C221.654648,582.088928 223.291748,579.053650 219.366913,578.551819 
	C219.150345,578.524109 219.162811,577.038269 218.992950,576.247375 
	C218.554214,574.204407 220.514648,571.064026 216.403793,570.586487 
	C216.164200,570.558655 216.016830,568.775024 216.014923,567.808044 
	C215.989609,554.975952 215.944351,542.143188 216.091644,529.312744 
	C216.104568,528.186218 217.474884,527.098206 218.136459,525.947327 
	C218.506760,525.303162 219.054108,524.507507 218.944870,523.880676 
	C218.017990,518.562561 221.672089,515.077393 223.979477,511.087585 
	C228.843353,502.677277 234.949112,495.431335 243.090836,489.873413 
	C246.544159,487.515930 249.300720,484.147217 252.448242,481.320831 
	C252.852142,480.958191 253.706146,481.100891 254.350327,481.001099 
	C258.654327,480.334412 264.067261,481.059753 267.028381,478.703949 
	C272.999084,473.953735 279.195648,476.631439 285.208832,476.122131 
	C291.661896,475.575531 298.200378,475.895844 304.693542,476.096649 
	C305.833069,476.131897 306.879059,477.553894 308.068604,478.127106 
	C309.013702,478.582581 310.097778,478.804169 311.145111,478.983459 
	C315.275238,479.690491 320.390686,479.088135 323.289520,481.346985 
	C326.473511,483.828156 331.750153,483.378174 333.267456,488.724365 
	C333.961182,491.168701 337.334320,492.888214 339.565887,494.852814 
	C343.859314,498.632629 348.215454,502.341248 352.508148,506.121887 
	C352.822083,506.398315 352.820038,507.022491 352.989471,507.475830 
	C354.145233,510.568390 355.291931,513.664490 356.475616,516.746399 
	C356.938873,517.952454 357.626190,519.086792 357.971100,520.320923 
	C358.572174,522.471741 356.391693,525.769409 360.616608,526.452271 
	C360.861694,526.491882 360.812714,527.970703 361.010162,528.752014 
	C361.780182,531.799255 358.775085,536.012390 363.831024,537.834778 
	C364.185486,537.962524 363.993774,539.703552 363.996002,540.694458 
	C364.007599,545.860657 364.148499,551.033020 363.934906,556.190430 
	C363.830750,558.705200 365.505157,562.100281 361.358856,563.278320 
	C361.130127,563.343384 360.956390,564.211853 361.034851,564.657471 
	C362.438995,572.631287 355.856171,578.743469 355.974030,586.413513 
	C355.981049,586.871277 355.843903,587.612610 355.550293,587.752380 
	C348.747223,590.990479 347.572083,599.375061 341.803497,603.127258 
	C338.416473,605.330383 337.014008,609.593689 331.964722,610.427063 
	C328.196960,611.048950 325.330933,616.181885 321.461334,617.411926 
	C317.745087,618.593201 314.941956,622.710510 310.177826,621.135498 
	C308.893921,620.711060 305.927277,619.625793 305.805695,623.246887 
	C305.796143,623.531372 303.835632,623.960266 302.779633,623.966797 
	C293.614166,624.023865 284.339935,624.819702 275.331146,623.630188 
	C271.243652,623.090393 265.972260,622.487671 262.679504,618.488708 
	C262.287689,618.012939 261.132812,617.952515 260.366455,618.032532 
	C255.566483,618.534058 252.294220,615.181458 248.669830,613.111633 
	C244.170868,610.542236 239.211487,607.781555 236.262787,603.771301 
	C233.216110,599.627747 227.192993,597.824280 226.766922,591.387939 
	C226.618958,589.152710 223.994827,587.081482 222.268448,584.557983 
z"/>
<path fill="#020202" opacity="1.000000" stroke="none" 
	d="
M882.814453,880.200684 
	C886.528320,882.466370 889.943726,884.978394 893.359131,887.490417 
	C893.083374,887.989868 892.807556,888.489258 892.531799,888.988708 
	C889.648132,888.988708 886.764465,888.988708 883.439575,888.910950 
	C882.837524,886.037781 882.676819,883.242432 882.814453,880.200684 
z"/>
<path fill="#010101" opacity="1.000000" stroke="none" 
	d="
M911.000366,896.666260 
	C906.526428,896.833130 902.052246,896.833130 897.289062,896.833130 
	C897.289062,895.056946 897.289062,893.322327 897.289062,891.186707 
	C902.496948,890.222473 906.342896,893.174561 910.615356,896.085327 
	C911.000671,896.165527 911.000000,896.499329 911.000366,896.666260 
z"/>
<path fill="#020202" opacity="1.000000" stroke="none" 
	d="
M882.102539,877.342896 
	C882.316223,877.262573 882.624451,877.358337 882.881714,877.722717 
	C882.573242,877.896118 882.361938,877.738647 882.102539,877.342896 
z"/>
<path fill="#000000" opacity="1.000000" stroke="none" 
	d="
M648.000427,557.026001 
	C647.699463,554.274170 649.309998,551.194336 645.321594,550.356445 
	C645.091614,550.308105 645.207336,546.518921 645.482727,546.474854 
	C649.532043,545.827209 647.608704,542.747131 647.971924,540.702515 
	C648.733093,536.417664 649.210388,532.075562 650.156006,527.835449 
	C650.370544,526.873413 652.248779,526.398499 652.966858,525.412231 
	C655.743164,521.599060 657.675049,516.816284 661.199768,513.987488 
	C666.258972,509.927155 672.331787,507.057922 678.161377,504.047150 
	C686.063782,499.965912 694.672119,502.273956 702.929138,502.236786 
	C706.629639,502.220093 710.567383,504.955078 714.076782,505.899170 
	C719.120178,507.255768 721.061890,511.336670 724.672729,513.686890 
	C729.421448,516.777771 732.194763,522.159790 735.444885,527.057495 
	C741.655762,536.416626 741.950989,546.384033 740.618347,556.204102 
	C739.690247,563.042847 735.365540,569.485046 732.185303,575.920166 
	C731.012939,578.292419 728.999756,580.400330 726.963989,582.158447 
	C724.064453,584.662598 720.892334,586.894409 717.647339,588.942627 
	C714.525757,590.912903 711.291626,592.840271 707.861816,594.139343 
	C705.561768,595.010437 702.812073,594.620300 700.304321,595.038635 
	C697.859619,595.446472 695.466858,596.164856 693.104492,596.734009 
	C691.335205,596.234009 689.172302,595.527710 686.963135,595.024414 
	C684.613281,594.489014 681.224792,596.547668 680.391174,592.261719 
	C680.352356,592.062012 679.142334,591.900146 678.544922,592.029846 
	C674.744934,592.855103 672.034058,591.415588 670.004211,588.240112 
	C669.651611,587.688477 668.840332,587.018066 668.298218,587.065002 
	C664.104370,587.427795 663.116760,583.674988 660.672607,581.671692 
	C656.492249,578.245239 655.307922,572.779419 650.717896,569.382812 
	C648.238342,567.547913 648.806946,561.593994 648.000427,557.026001 
z"/>
<path fill="#000000" opacity="1.000000" stroke="none" 
	d="
M498.654938,896.405151 
	C502.693542,892.146851 508.026001,892.739624 512.821533,890.642639 
	C512.821533,893.138184 512.821533,894.881714 512.821533,896.756714 
	C507.908783,896.756714 503.170593,896.756714 498.654938,896.405151 
z"/>
</svg>